<?xml version="1.0" standalone="no"?>
<!DOCTYPE svg PUBLIC "-//W3C//DTD SVG 20010904//EN"
 "http://www.w3.org/TR/2001/REC-SVG-20010904/DTD/svg10.dtd">
<svg version="1.0" xmlns="http://www.w3.org/2000/svg"
 width="574.000000pt" height="133.000000pt" viewBox="0 0 574.000000 133.000000"
 preserveAspectRatio="xMidYMid meet">

<g transform="translate(0.000000,133.000000) scale(0.100000,-0.100000)"
fill="#000000" stroke="none">
<path d="M1763 1152 c-40 -26 -30 -107 14 -118 63 -16 108 37 81 93 -10 22
-21 29 -48 31 -19 1 -40 -1 -47 -6z"/>
<path d="M1410 1040 l0 -70 -40 0 -40 0 0 -50 0 -50 40 0 40 0 0 -118 c0 -102
3 -123 23 -162 12 -24 34 -52 48 -63 34 -24 102 -32 156 -18 l41 11 -18 47
c-18 47 -18 47 -59 44 -66 -4 -71 5 -71 140 l0 118 63 3 62 3 3 48 3 47 -65 0
-66 0 0 70 0 70 -60 0 -60 0 0 -70z"/>
<path d="M270 745 l0 -245 55 0 55 0 0 123 c0 144 10 187 51 221 35 30 76 33
124 11 48 -24 55 -49 55 -210 l0 -145 61 0 61 0 -4 163 c-3 158 -4 163 -32
215 -54 96 -171 137 -269 94 -46 -20 -47 -21 -47 -1 0 16 -7 19 -55 19 l-55 0
0 -245z"/>
<path d="M983 979 c-122 -37 -186 -145 -168 -280 10 -68 57 -135 120 -168 93
-49 235 -29 297 43 81 91 80 255 0 339 -58 61 -170 91 -249 66z m146 -124 c38
-32 55 -84 46 -140 -14 -97 -129 -140 -204 -77 -28 23 -34 36 -38 79 -7 69 2
100 39 135 41 38 112 40 157 3z"/>
<path d="M2108 976 c-104 -37 -158 -117 -158 -231 0 -136 83 -228 215 -242
146 -15 265 94 265 242 0 112 -63 200 -166 231 -58 17 -107 17 -156 0z m135
-107 c84 -45 98 -173 26 -233 -24 -20 -41 -26 -81 -26 -43 0 -54 4 -83 33 -84
84 -35 237 76 237 22 0 50 -5 62 -11z"/>
<path d="M2510 745 l0 -245 55 0 55 0 0 136 c0 152 10 188 59 217 56 33 136
13 160 -40 6 -14 11 -86 11 -168 l0 -145 60 0 60 0 0 129 c0 209 -23 276 -112
330 -53 32 -153 36 -205 9 -32 -16 -33 -16 -33 3 0 16 -7 19 -55 19 l-55 0 0
-245z"/>
<path d="M3090 600 l0 -390 25 0 25 0 0 201 0 201 26 -32 c82 -96 255 -101
341 -8 38 41 63 108 63 173 0 143 -91 238 -230 239 -72 0 -114 -16 -167 -67
l-33 -31 0 52 c0 49 -2 52 -25 52 l-25 0 0 -390z m347 315 c118 -70 118 -270
0 -340 -51 -29 -140 -34 -186 -11 -60 31 -111 115 -111 181 0 65 44 140 105
176 46 29 137 26 192 -6z"/>
<path d="M3690 745 c0 -238 1 -245 20 -245 19 0 20 7 20 155 0 176 7 202 64
253 31 27 45 32 87 32 28 0 58 -4 68 -9 13 -7 20 -5 29 10 11 18 9 21 -22 34
-62 26 -131 15 -193 -32 l-33 -24 0 35 c0 29 -4 36 -20 36 -19 0 -20 -7 -20
-245z"/>
<path d="M4210 981 c-173 -56 -234 -262 -119 -398 68 -81 204 -103 305 -51 64
34 81 53 64 73 -11 13 -18 10 -57 -18 -39 -27 -55 -32 -116 -35 -66 -3 -76 -1
-120 27 -45 29 -86 90 -87 129 0 9 50 12 216 12 l216 0 -7 43 c-9 54 -40 125
-68 155 -49 53 -162 84 -227 63z m157 -67 c43 -25 76 -69 88 -116 l7 -28 -191
0 c-127 0 -191 4 -191 11 0 27 44 101 73 123 65 50 139 53 214 10z"/>
<path d="M4718 976 c-63 -23 -87 -44 -99 -86 -11 -35 -10 -46 4 -76 21 -43 69
-66 187 -88 46 -9 94 -23 107 -31 30 -20 38 -56 19 -93 -21 -41 -62 -55 -150
-50 -66 3 -79 7 -114 36 -25 19 -47 29 -56 26 -36 -14 -12 -46 64 -85 94 -49
267 -21 298 47 7 14 12 45 12 69 0 35 -6 49 -27 70 -33 30 -62 40 -172 59 -58
10 -91 21 -107 37 -34 32 -31 71 7 103 27 23 39 26 108 26 66 0 84 -4 114 -24
25 -17 38 -21 46 -13 20 20 12 33 -36 56 -59 29 -153 37 -205 17z"/>
<path d="M5198 981 c-73 -24 -108 -63 -108 -121 0 -74 49 -107 196 -135 60
-11 96 -23 112 -37 31 -30 29 -78 -4 -109 -23 -22 -34 -24 -114 -24 -84 0 -90
2 -134 33 -39 28 -49 32 -62 21 -13 -10 -11 -16 12 -41 95 -98 322 -83 363 25
31 84 -15 145 -127 167 -137 28 -157 34 -179 56 -29 30 -29 56 1 91 23 27 28
28 119 28 80 0 98 -3 117 -20 15 -14 25 -17 37 -9 26 16 21 25 -30 51 -51 27
-151 39 -199 24z"/>
<path d="M1740 735 l0 -235 60 0 60 0 0 235 0 235 -60 0 -60 0 0 -235z"/>
<path d="M4734 410 c-69 -27 -73 -159 -7 -189 33 -15 85 -14 109 3 28 21 4 41
-45 37 -64 -4 -91 42 -52 90 14 18 29 23 61 24 50 0 62 16 25 33 -30 14 -61
14 -91 2z"/>
<path d="M4931 404 c-36 -26 -54 -79 -41 -120 33 -99 167 -99 200 0 29 90 -82
173 -159 120z m95 -50 c20 -19 24 -31 19 -52 -9 -39 -23 -47 -77 -43 -43 3
-47 94 -5 111 33 13 36 12 63 -16z"/>
<path d="M5140 315 c0 -105 0 -105 25 -105 23 0 24 3 27 71 2 59 7 74 23 85
18 12 24 11 43 -2 19 -13 22 -24 22 -85 0 -67 1 -69 25 -69 24 0 25 2 25 68 0
80 8 95 46 90 29 -3 29 -3 32 -80 3 -75 4 -78 27 -78 24 0 25 2 25 80 0 73 -3
83 -25 105 -31 32 -84 34 -110 5 l-18 -20 -22 20 c-24 22 -65 26 -83 8 -9 -9
-12 -9 -12 0 0 7 -11 12 -25 12 l-25 0 0 -105z"/>
<path d="M4572 261 c-19 -12 -11 -45 12 -49 24 -5 37 17 25 40 -11 20 -18 22
-37 9z"/>
</g>
</svg>
