<?xml version="1.0" encoding="UTF-8" standalone="no"?>
<!-- Created with Inkscape (http://www.inkscape.org/) -->

<svg
   xmlns:dc="http://purl.org/dc/elements/1.1/"
   xmlns:cc="http://creativecommons.org/ns#"
   xmlns:rdf="http://www.w3.org/1999/02/22-rdf-syntax-ns#"
   xmlns:svg="http://www.w3.org/2000/svg"
   xmlns="http://www.w3.org/2000/svg"
   xmlns:sodipodi="http://sodipodi.sourceforge.net/DTD/sodipodi-0.dtd"
   xmlns:inkscape="http://www.inkscape.org/namespaces/inkscape"
   width="194.09856"
   height="30.120029"
   viewBox="0 0 51.355243 7.9692578"
   version="1.1"
   id="svg5280"
   inkscape:version="0.92.0 r15299"
   sodipodi:docname="overdrive.svg">
  <defs
     id="defs5274" />
  <sodipodi:namedview
     id="base"
     pagecolor="#ffffff"
     bordercolor="#666666"
     borderopacity="1.0"
     inkscape:pageopacity="0.0"
     inkscape:pageshadow="2"
     inkscape:zoom="4.6694782"
     inkscape:cx="96.049277"
     inkscape:cy="14.060013"
     inkscape:document-units="mm"
     inkscape:current-layer="layer1"
     showgrid="false"
     fit-margin-top="0"
     fit-margin-left="0"
     fit-margin-right="0"
     fit-margin-bottom="0"
     units="px"
     inkscape:window-width="1280"
     inkscape:window-height="744"
     inkscape:window-x="-4"
     inkscape:window-y="-4"
     inkscape:window-maximized="1" />
  <metadata
     id="metadata5277">
    <rdf:RDF>
      <cc:Work
         rdf:about="">
        <dc:format>image/svg+xml</dc:format>
        <dc:type
           rdf:resource="http://purl.org/dc/dcmitype/StillImage" />
        <dc:title></dc:title>
      </cc:Work>
    </rdf:RDF>
  </metadata>
  <g
     inkscape:label="Layer 1"
     inkscape:groupmode="layer"
     id="layer1"
     transform="translate(12.939828,-144.58413)">
    <g
       transform="translate(-482.09838,-201.5062)"
       id="g5253">
      <path
         style="fill:#006595;stroke-width:0.26458332"
         id="path5166"
         d="m 474.74676,346.35491 c 2.40242,0 4.06929,1.61925 3.60627,3.72798 -0.44979,2.03994 -2.80194,3.68829 -5.23346,3.68829 -2.43152,0 -4.07193,-1.64835 -3.62214,-3.68829 0.46302,-2.11666 2.84427,-3.72798 5.24933,-3.72798 m -1.3626,6.18332 c 1.61395,0 3.11414,-1.14565 3.40254,-2.46592 0.30162,-1.3679 -0.72231,-2.48444 -2.31246,-2.48444 -1.59015,0 -3.10621,1.11654 -3.40783,2.48444 -0.29105,1.32292 0.70379,2.46592 2.31775,2.46592"
         inkscape:connector-curvature="0" />
      <polygon
         style="fill:#006595"
         transform="matrix(0.26458333,0,0,0.26458333,468.09249,344.91558)"
         id="polygon5168"
         points="49.31,26.11 57.71,12.72 64.02,12.72 49.84,32.92 45.34,32.92 40.1,12.72 46.33,12.72 49.18,26.11 " />
      <path
         style="fill:#006595;stroke-width:0.26458332"
         id="path5170"
         d="m 485.40418,351.53016 c 0,0.34661 0.42068,1.09802 1.50812,1.09802 a 2.0558125,2.0558125 0 0 0 1.61396,-0.68527 h 1.60338 c -0.57944,0.96309 -1.97644,1.85209 -3.47663,1.85209 -1.9341,0 -3.07181,-1.27265 -2.72785,-2.83105 0.33073,-1.51341 1.95791,-2.87072 3.96875,-2.87072 2.08227,0 2.96862,1.43404 2.67229,2.78341 a 2.9315833,2.9315833 0 0 1 -0.23284,0.65352 z m 3.70416,-1.03187 c 0.0159,-0.85725 -0.635,-1.22238 -1.44727,-1.22238 a 2.2489583,2.2489583 0 0 0 -2.06639,1.22238 z"
         inkscape:connector-curvature="0" />
      <path
         style="fill:#006595;stroke-width:0.26458332"
         id="path5172"
         d="m 491.64041,348.28108 h 1.397 l -0.10584,0.4736 h 0.0238 a 1.9023541,1.9023541 0 0 1 1.49754,-0.6641 h 0.127 l -0.26459,1.24354 c -1.39435,0.0476 -1.5875,0.96044 -1.66687,1.28058 l -0.66146,3.00303 h -1.53194 z"
         inkscape:connector-curvature="0" />
      <path
         style="fill:#006595;stroke-width:0.26458332"
         id="path5174"
         d="m 495.34457,346.50308 h 1.92352 c 2.08227,0 2.88132,0.47096 3.29407,0.82815 a 2.8310416,2.8310416 0 0 1 0.79375,2.75431 c -0.28311,1.28058 -1.34409,2.51354 -2.70405,3.07975 -0.85725,0.36777 -1.96585,0.46302 -2.91041,0.46302 h -1.95792 z m 0.26459,5.89227 h 0.33337 a 5.0270833,5.0270833 0 0 0 2.13783,-0.33602 2.9104166,2.9104166 0 0 0 1.70128,-1.96321 1.7912291,1.7912291 0 0 0 -0.52917,-1.75419 c -0.52917,-0.50006 -1.34408,-0.59531 -2.32833,-0.59531 h -0.29898 z"
         inkscape:connector-curvature="0" />
      <path
         style="fill:#006595;stroke-width:0.26458332"
         id="path5176"
         d="m 502.15759,348.28108 h 1.38907 l -0.10319,0.4736 h 0.0212 a 1.9023541,1.9023541 0 0 1 1.51341,-0.6641 h 0.127 l -0.26458,1.24354 c -1.397,0.0476 -1.5875,0.96044 -1.66688,1.28058 l -0.66145,3.00303 h -1.52136 z"
         inkscape:connector-curvature="0" />
      <path
         style="fill:#006595;stroke-width:0.26458332"
         id="path5178"
         d="m 505.47547,348.28108 h 1.51077 l -1.17475,5.34458 h -1.52135 z m 0.39423,-1.778 h 1.52135 l -0.26458,1.17475 h -1.51606 z"
         inkscape:connector-curvature="0" />
      <polygon
         style="fill:#006595"
         transform="matrix(0.26458333,0,0,0.26458333,468.09249,344.91558)"
         id="polygon5180"
         points="157.41,26.11 165.81,12.72 172.13,12.72 157.95,32.92 153.45,32.92 148.21,12.72 154.44,12.72 157.28,26.11 " />
      <path
         style="fill:#006595;stroke-width:0.26458332"
         id="path5182"
         d="m 514.12999,351.53016 c 0,0.34661 0.42069,1.09802 1.50812,1.09802 a 2.0558125,2.0558125 0 0 0 1.61396,-0.68527 h 1.60338 c -0.57944,0.96309 -1.97909,1.85209 -3.47663,1.85209 -1.9341,0 -3.07181,-1.27265 -2.72785,-2.83105 0.33337,-1.51341 1.95792,-2.87072 3.96875,-2.87072 2.08227,0 2.96862,1.43404 2.67229,2.78341 a 2.9315833,2.9315833 0 0 1 -0.24077,0.65352 z m 3.70417,-1.03187 c 0.0159,-0.85725 -0.635,-1.22238 -1.44727,-1.22238 a 2.2489583,2.2489583 0 0 0 -2.0664,1.22238 z"
         inkscape:connector-curvature="0" />
      <path
         style="fill:#006595;stroke-width:0.26458332"
         id="path5184"
         d="m 520.23657,348.15143 a 0.70908332,0.70908332 0 0 1 -0.66675,0.55827 0.45243749,0.45243749 0 0 1 -0.46302,-0.55827 0.71172916,0.71172916 0 0 1 0.67204,-0.55827 0.45243749,0.45243749 0 0 1 0.45773,0.55827 m -0.99483,0 a 0.34660416,0.34660416 0 0 0 0.34925,0.43392 0.54504166,0.54504166 0 0 0 0.51329,-0.43392 0.34925,0.34925 0 0 0 -0.35189,-0.43127 0.52916666,0.52916666 0 0 0 -0.51065,0.43127 m 0.52917,-0.31485 c 0.0397,0 0.22754,0 0.19314,0.17462 a 0.18785416,0.18785416 0 0 1 -0.14816,0.15611 v 0 c 0.0847,0.0238 0.09,0.0767 0.0767,0.15875 -0.0132,0.082 -0.0159,0.12171 0,0.14817 h -0.13229 c 0,-0.0185 0,-0.0397 0,-0.11907 0,-0.0794 0,-0.12964 -0.09,-0.13758 h -0.11377 l -0.0476,0.26458 h -0.127 l 0.11906,-0.64029 z m -0.1958,0.28046 h 0.11113 c 0.045,0 0.12435,0 0.14287,-0.10054 0.0185,-0.10055 -0.0397,-0.0741 -0.0952,-0.0741 h -0.12964 z"
         inkscape:connector-curvature="0" />
    </g>
  </g>
</svg>
