<?xml version="1.0" standalone="no"?>
<!DOCTYPE svg PUBLIC "-//W3C//DTD SVG 20010904//EN"
 "http://www.w3.org/TR/2001/REC-SVG-20010904/DTD/svg10.dtd">
<svg version="1.0" xmlns="http://www.w3.org/2000/svg"
 width="1600.000000pt" height="431.000000pt" viewBox="0 0 1600.000000 431.000000"
 preserveAspectRatio="xMidYMid meet">

<g transform="translate(0.000000,431.000000) scale(0.100000,-0.100000)"
fill="#000000" stroke="none">
<path d="M2493 3990 c-40 -16 -55 -55 -69 -181 -8 -66 -12 -124 -9 -129 3 -5
1 -30 -5 -56 -9 -40 -8 -49 6 -65 20 -22 57 -25 72 -6 5 6 24 75 42 152 17 77
37 149 45 161 18 28 29 87 20 113 -5 16 -14 21 -43 20 -20 0 -47 -4 -59 -9z"/>
<path d="M1180 3920 c-11 -11 -20 -28 -20 -39 0 -28 137 -296 169 -330 21 -22
35 -29 48 -24 33 11 42 24 48 68 8 47 -3 75 -61 155 -19 26 -34 57 -34 70 0
39 -30 88 -65 104 -44 21 -61 20 -85 -4z"/>
<path d="M3463 3405 c-64 -32 -323 -261 -323 -286 0 -16 34 -18 60 -4 16 8 39
15 50 15 26 0 287 176 307 206 17 27 8 71 -17 84 -24 13 -18 14 -77 -15z"/>
<path d="M385 3412 c-32 -6 -73 -51 -80 -88 -8 -47 17 -96 64 -122 21 -12 46
-22 54 -22 8 0 28 -6 44 -14 189 -97 244 -111 258 -66 9 29 -1 54 -32 72 -16
9 -75 64 -133 122 -104 104 -136 126 -175 118z"/>
<path d="M13610 2870 c-22 -22 -26 -60 -10 -90 13 -25 80 -47 164 -55 38 -4
75 -9 83 -12 16 -6 19 -204 3 -234 -14 -25 -41 -24 -73 1 -52 41 -91 50 -217
50 -73 0 -130 -5 -143 -12 -12 -6 -63 -49 -114 -96 -77 -71 -94 -93 -108 -136
-9 -28 -28 -81 -41 -117 -24 -60 -25 -76 -22 -190 3 -120 4 -126 42 -206 68
-145 204 -251 360 -283 83 -17 136 -7 232 44 l83 44 36 -28 c48 -38 122 -54
231 -48 99 5 155 26 173 65 19 43 13 70 -21 95 -28 19 -46 23 -118 24 -47 0
-90 1 -97 2 -13 2 -17 120 -28 805 l-6 327 -35 35 -35 35 -159 0 c-147 0 -162
-2 -180 -20z m54 -514 c122 -51 205 -211 193 -374 -10 -128 -95 -269 -183
-302 -71 -27 -176 -3 -245 58 -98 86 -137 303 -82 456 21 58 81 129 132 156
44 23 137 26 185 6z"/>
<path d="M15270 2875 c0 -10 10 -15 30 -15 l30 0 0 -85 c0 -84 0 -85 25 -85
24 0 24 2 27 83 3 81 3 82 31 85 15 2 27 9 27 18 0 11 -18 14 -85 14 -69 0
-85 -3 -85 -15z"/>
<path d="M15460 2836 c0 -29 -3 -74 -6 -100 -7 -44 -6 -46 19 -46 25 0 26 2
29 68 3 70 6 69 30 -13 10 -36 19 -51 34 -53 16 -2 24 10 46 75 l26 78 1 -77
1 -78 28 0 29 0 -4 78 c-6 118 -8 122 -47 122 -33 0 -34 -2 -52 -65 -10 -36
-22 -65 -25 -65 -4 0 -9 17 -12 38 -10 73 -23 92 -62 92 l-35 0 0 -54z"/>
<path d="M1240 2873 c-41 -6 -71 -26 -87 -56 l-15 -29 -189 7 -189 7 0 -36 0
-36 -53 0 c-77 0 -100 -24 -92 -93 3 -29 28 -315 55 -637 66 -776 66 -773 84
-808 9 -17 28 -40 42 -51 55 -43 112 -48 419 -36 l181 7 48 -97 c72 -143 102
-179 241 -290 33 -26 68 -56 78 -67 23 -27 21 -79 -6 -210 l-23 -107 60 -19
61 -18 6 28 c4 15 10 91 14 168 9 180 2 197 -123 298 -120 97 -154 135 -201
223 l-41 76 37 7 c21 3 68 6 106 6 59 0 67 -2 67 -19 0 -10 6 -24 14 -30 10
-9 27 -1 76 34 70 52 92 92 110 195 17 105 24 376 12 465 -21 147 -25 258 -10
277 13 17 103 47 112 37 3 -2 14 -46 25 -96 24 -107 48 -309 57 -488 l7 -126
31 3 31 3 -2 135 c-1 74 -6 178 -12 230 -6 52 -13 163 -17 246 l-7 152 26 26
c20 19 36 26 67 26 22 0 40 -3 40 -7 0 -5 9 -62 20 -128 17 -99 20 -168 20
-398 l0 -278 33 3 32 3 5 185 c3 102 2 247 -3 322 -6 112 -5 145 7 173 17 39
53 59 92 49 l24 -6 -1 -307 c0 -168 -4 -329 -8 -358 -7 -53 -1 -62 45 -63 15
0 29 79 54 305 11 105 23 196 25 202 2 7 18 13 35 13 l30 0 0 -112 c0 -185
-29 -544 -52 -641 l-21 -89 -101 -106 c-172 -182 -222 -242 -206 -252 8 -5 18
-6 24 -3 5 4 6 -7 2 -28 -9 -44 -28 -341 -22 -346 6 -6 116 18 120 26 2 3 0
51 -4 106 -7 115 4 234 26 277 8 16 64 81 124 143 117 122 136 150 146 214 4
23 11 44 17 48 6 4 99 9 206 12 185 6 198 7 229 29 71 51 74 70 102 527 6 99
22 365 35 590 31 518 31 525 2 553 -22 21 -25 21 -957 31 -948 11 -1075 11
-1120 4z m1867 -120 c-20 -2 -52 -2 -70 0 -17 2 0 4 38 4 39 0 53 -2 32 -4z
m106 0 c-7 -2 -21 -2 -30 0 -10 3 -4 5 12 5 17 0 24 -2 18 -5z m-2207 -59 c21
-6 22 -11 29 -272 3 -147 8 -287 10 -312 2 -25 5 -61 6 -80 1 -33 57 558 58
628 1 30 3 32 36 32 30 0 35 -3 35 -22 0 -13 -14 -187 -30 -388 -16 -201 -39
-489 -51 -640 -12 -152 -27 -281 -33 -289 -28 -36 -133 -50 -151 -21 -6 9 -22
228 -59 795 -14 209 -28 408 -32 443 -5 60 -5 62 18 62 l24 0 38 -387 c21
-214 42 -404 46 -423 4 -19 5 171 2 423 -5 444 -4 457 14 457 10 0 29 -3 40
-6z m2211 -296 c-3 -7 -5 -2 -5 12 0 14 2 19 5 13 2 -7 2 -19 0 -25z m-954
-135 c-7 -2 -21 -2 -30 0 -10 3 -4 5 12 5 17 0 24 -2 18 -5z m-1416 -855 c-3
-7 -5 -2 -5 12 0 14 2 19 5 13 2 -7 2 -19 0 -25z m741 25 c-10 -2 -28 -2 -40
0 -13 2 -5 4 17 4 22 1 32 -1 23 -4z m85 -50 c-7 -2 -19 -2 -25 0 -7 3 -2 5
12 5 14 0 19 -2 13 -5z m125 0 c-15 -2 -42 -2 -60 0 -18 2 -6 4 27 4 33 0 48
-2 33 -4z m-545 -170 c-13 -2 -33 -2 -45 0 -13 2 -3 4 22 4 25 0 35 -2 23 -4z"/>
<path d="M4550 2846 c-179 -63 -264 -138 -309 -274 -62 -183 7 -348 181 -435
99 -50 168 -66 330 -77 170 -11 220 -30 278 -103 37 -46 40 -54 39 -111 0 -48
-7 -75 -33 -126 -35 -70 -30 -67 -172 -111 -50 -15 -164 -10 -225 10 -147 50
-180 91 -208 260 -12 73 -31 108 -69 122 -34 13 -68 4 -98 -26 l-24 -24 0
-249 0 -249 27 -27 c52 -52 106 -47 147 14 34 51 57 52 155 5 l73 -35 151 0
c143 0 154 1 187 24 19 12 51 28 72 35 55 18 125 86 159 153 43 85 64 214 49
293 -20 98 -57 151 -174 244 -54 44 -71 51 -146 65 -47 9 -156 23 -243 30
-175 16 -222 33 -263 94 -69 102 -19 228 115 290 89 41 181 32 316 -33 80 -38
98 -62 114 -149 6 -32 19 -73 29 -90 15 -27 25 -31 64 -34 37 -2 50 1 67 19
20 22 21 34 21 226 0 216 -8 260 -48 282 -52 28 -115 -12 -129 -80 -7 -36 -24
-37 -88 -2 -54 28 -237 93 -264 93 -9 0 -45 -11 -81 -24z"/>
<path d="M8843 2861 c-98 -8 -136 -30 -141 -80 -4 -39 21 -97 48 -111 10 -5
50 -10 89 -10 58 0 72 -3 80 -18 15 -28 27 -507 12 -516 -8 -5 -11 -72 -11
-226 0 -214 0 -220 -22 -240 -18 -17 -31 -20 -58 -15 -105 18 -107 18 -124 -6
-9 -13 -16 -42 -16 -65 0 -35 5 -47 35 -73 44 -38 73 -46 133 -36 26 5 117 9
202 9 135 1 159 4 188 21 37 23 48 53 36 97 -12 40 -50 68 -109 79 -72 14 -75
18 -75 128 0 125 14 199 54 286 63 135 180 232 295 242 54 5 60 3 92 -25 l34
-30 -4 -254 c-1 -139 -6 -271 -10 -292 -6 -38 -8 -40 -56 -51 -88 -20 -125
-55 -125 -119 0 -29 6 -38 38 -58 35 -22 46 -23 217 -23 99 0 199 4 222 8 54
12 85 45 85 91 0 57 -36 87 -122 101 -25 4 -48 13 -52 19 -4 6 -8 139 -8 296
0 163 -4 301 -10 322 -20 71 -70 130 -140 166 -63 32 -69 33 -160 30 -81 -3
-105 -8 -151 -31 -56 -29 -118 -81 -146 -123 -9 -14 -25 -24 -39 -24 l-24 0 0
233 c0 205 -2 235 -18 253 -36 45 -98 57 -239 45z"/>
<path d="M12048 2630 c-39 -39 -38 -88 1 -132 29 -33 29 -33 140 -36 67 -3
114 -9 120 -16 18 -21 50 -453 41 -541 -5 -44 -9 -86 -9 -94 -1 -11 -19 -12
-100 -7 -77 6 -106 4 -134 -7 -81 -34 -73 -127 14 -172 44 -23 610 -16 656 8
37 19 53 44 53 81 0 40 -10 56 -53 77 -35 18 -51 20 -122 14 -126 -10 -123
-14 -131 221 l-7 191 28 51 c38 70 209 224 244 220 22 -3 26 -10 36 -68 20
-116 57 -160 135 -160 65 0 111 26 138 80 71 142 -38 300 -222 317 -82 7 -149
-12 -255 -77 -46 -27 -88 -50 -93 -50 -5 0 -15 15 -23 33 -31 74 -70 88 -274
92 l-155 3 -28 -28z"/>
<path d="M8040 2641 c-48 -16 -145 -69 -173 -95 -44 -41 -67 -101 -67 -181 0
-39 4 -85 10 -104 14 -52 56 -105 100 -130 51 -28 185 -57 331 -70 123 -12
213 -33 242 -59 21 -19 23 -91 3 -130 -32 -63 -191 -113 -287 -93 -27 6 -67
20 -88 31 -48 24 -151 136 -158 172 -12 58 -89 83 -133 43 -18 -16 -20 -30
-20 -146 0 -70 -5 -140 -11 -155 -14 -39 -1 -103 27 -131 45 -45 125 -17 142
50 11 42 33 45 74 9 44 -39 91 -58 181 -73 64 -11 84 -10 140 4 109 26 163 55
216 112 72 79 95 134 96 225 0 87 -23 136 -97 206 -69 66 -203 102 -412 111
-125 6 -130 7 -162 36 -28 24 -34 36 -34 68 0 32 7 46 40 79 l40 40 114 0
c165 0 206 -19 261 -123 50 -94 72 -117 111 -117 40 0 79 34 87 78 3 15 3 87
0 161 -7 154 -15 171 -80 171 -31 0 -44 -7 -68 -35 l-30 -35 -52 25 c-91 44
-284 76 -343 56z"/>
<path d="M14533 2632 c-81 -29 -159 -86 -185 -134 -19 -36 -23 -58 -23 -138 1
-100 12 -137 59 -188 48 -54 176 -90 386 -111 149 -14 209 -29 238 -58 21 -21
24 -31 18 -69 -8 -61 -29 -89 -89 -118 -156 -76 -315 -39 -416 97 -21 29 -43
66 -48 82 -16 51 -82 71 -121 38 -19 -16 -22 -32 -26 -148 -2 -71 -8 -147 -11
-168 -9 -46 1 -101 21 -122 9 -9 33 -15 58 -15 48 0 69 17 87 68 6 18 16 32
21 32 6 0 37 -18 69 -39 73 -49 143 -65 259 -59 105 5 183 37 254 106 135 130
141 300 15 436 -33 37 -54 50 -108 65 -117 35 -163 43 -303 50 -156 8 -186 20
-202 83 -12 47 15 94 70 125 68 39 245 28 315 -20 19 -13 51 -56 79 -107 50
-90 74 -109 124 -96 15 4 35 21 46 39 17 28 20 51 20 179 l0 146 -31 26 c-43
37 -71 33 -117 -15 l-39 -40 -34 20 c-50 29 -173 61 -259 67 -58 4 -87 0 -127
-14z"/>
<path d="M5694 2565 c-34 -19 -67 -41 -74 -50 -18 -22 -27 -19 -69 25 -35 37
-42 40 -92 40 -70 0 -126 -16 -139 -40 -29 -55 -1 -123 57 -136 16 -3 34 -8
41 -10 11 -3 13 -63 10 -312 -3 -336 -3 -335 -61 -347 -46 -10 -97 -51 -97
-79 0 -34 37 -75 87 -97 64 -27 238 -27 292 0 20 11 43 27 50 35 19 22 30 21
114 -19 65 -31 84 -35 153 -35 68 0 83 3 116 26 26 19 46 25 65 21 16 -3 88
-17 161 -32 74 -15 144 -24 158 -21 29 8 74 72 74 106 0 17 -14 39 -40 65
l-40 39 0 344 0 344 -35 58 c-43 71 -94 100 -173 100 -68 0 -112 -19 -174 -75
-28 -25 -56 -45 -62 -45 -7 0 -28 16 -47 36 -100 106 -167 120 -275 59z m164
-477 l2 -317 -66 -51 c-73 -55 -77 -56 -92 -37 -6 7 -34 24 -62 37 l-50 23 0
188 c0 158 3 197 20 251 24 77 67 146 123 194 35 29 48 34 82 32 l40 -3 3
-317z m420 -10 l2 -327 -22 -14 c-13 -8 -49 -20 -80 -27 -93 -21 -141 8 -158
98 -11 61 3 257 26 347 17 69 94 206 132 236 18 13 37 19 61 17 l36 -3 3 -327z"/>
<path d="M10394 2590 c-28 -5 -63 -14 -77 -19 -53 -21 -43 -101 16 -129 23
-11 27 -19 27 -58 0 -24 -18 -119 -40 -212 -55 -231 -67 -256 -89 -189 -22 67
-94 353 -99 389 -4 34 -1 39 24 49 42 15 74 49 74 76 0 67 -56 93 -204 93 -89
0 -107 -3 -130 -21 -22 -17 -26 -29 -26 -68 0 -43 4 -52 40 -85 48 -44 53 -57
174 -531 13 -49 29 -112 35 -140 25 -105 53 -167 85 -186 38 -23 68 -24 112
-3 29 14 37 26 53 78 25 81 77 352 96 496 6 44 29 89 41 78 12 -12 34 -118 49
-232 9 -66 18 -122 20 -125 2 -3 10 -48 19 -100 28 -161 56 -201 140 -201 72
0 108 62 152 265 26 119 40 172 104 394 47 164 61 195 102 232 24 22 29 34 26
64 -2 27 -11 44 -28 56 -35 27 -133 42 -209 34 -55 -6 -70 -12 -98 -40 -50
-50 -45 -76 22 -110 36 -19 40 -25 43 -63 3 -41 -25 -172 -56 -262 -8 -25 -22
-79 -31 -120 -22 -102 -39 -100 -62 8 -10 46 -23 119 -29 163 -6 44 -18 98
-25 120 -8 23 -15 59 -15 80 0 34 5 41 45 69 50 34 58 63 28 98 -37 43 -202
70 -309 52z"/>
<path d="M11451 2534 c-239 -51 -381 -260 -381 -558 0 -131 54 -279 136 -375
43 -49 128 -92 232 -116 36 -9 72 -21 80 -28 9 -7 44 -12 86 -12 63 1 80 6
144 40 83 43 185 137 225 205 15 25 43 104 62 175 32 112 36 140 31 204 -4 66
-12 88 -62 188 -67 134 -106 180 -193 228 -112 62 -228 78 -360 49z m229 -198
c96 -35 135 -73 160 -154 50 -160 31 -329 -47 -417 -10 -11 -35 -35 -56 -52
l-38 -33 -139 0 -139 0 -58 51 c-78 68 -89 89 -103 183 -27 185 23 320 150
404 60 39 69 42 135 42 48 0 90 -8 135 -24z"/>
<path d="M6802 2461 c-110 -74 -142 -117 -142 -190 0 -92 55 -141 159 -141 61
0 102 30 119 87 6 21 17 58 24 83 l13 45 104 3 c119 3 176 -13 216 -60 32 -38
33 -87 3 -115 -34 -31 -79 -41 -228 -53 -245 -20 -326 -45 -395 -121 -46 -51
-64 -93 -71 -167 -14 -134 34 -235 146 -307 l70 -45 135 0 135 0 105 55 c58
30 114 55 123 55 10 0 35 -18 57 -40 73 -75 201 -92 283 -37 56 36 102 130
102 205 0 72 -34 122 -84 122 -47 0 -61 -16 -85 -97 -15 -51 -27 -74 -41 -78
-25 -8 -57 9 -65 36 -4 11 -5 147 -3 302 3 271 2 284 -18 328 -29 62 -87 125
-149 160 l-50 29 -187 0 -187 0 -89 -59z m508 -524 c0 -102 -50 -177 -152
-228 -54 -27 -65 -29 -175 -29 -133 0 -155 8 -179 66 -19 46 -18 78 6 124 30
60 5 53 390 101 47 6 87 13 89 15 11 11 21 -12 21 -49z"/>
<path d="M11357 1218 c2 -5 -1 -8 -6 -8 -8 0 -11 -88 -11 -275 l0 -275 49 0
50 0 -5 62 c-5 65 8 108 33 108 7 0 38 -38 69 -85 55 -82 59 -85 95 -85 74 0
73 4 -3 108 -39 54 -75 99 -80 100 -19 8 -4 35 52 98 33 36 60 69 60 73 0 4
-21 7 -47 7 -47 -1 -49 -2 -95 -64 -27 -35 -48 -65 -48 -68 0 -6 -27 -34 -33
-34 -2 0 -7 73 -11 163 -3 89 -7 167 -8 172 -1 6 -16 10 -34 10 -18 0 -30 -3
-27 -7z"/>
<path d="M10002 935 l3 -285 33 0 c28 0 35 5 44 31 11 31 11 31 27 12 54 -68
194 -55 245 22 9 14 13 25 9 25 -5 0 -2 4 6 9 15 10 25 159 12 175 -9 11 -11
17 -11 35 0 15 -68 81 -85 82 -8 0 -33 1 -55 1 -66 0 -68 -1 -97 -28 l-28 -26
-3 103 c-1 57 -8 109 -14 116 -6 7 -28 13 -50 13 l-39 0 3 -285z m236 35 c41
-25 64 -78 61 -139 -5 -87 -74 -139 -141 -107 -89 43 -91 194 -4 247 39 24 43
24 84 -1z"/>
<path d="M14376 1067 c-32 -8 -35 -12 -34 -42 1 -33 11 -36 43 -15 6 4 31 8
56 9 51 3 90 -21 96 -58 3 -25 -2 -28 -74 -35 -77 -9 -139 -45 -147 -86 -1 -3
-4 -9 -8 -15 -15 -25 1 -87 31 -116 42 -40 118 -41 174 -4 31 22 38 23 43 11
3 -8 2 -20 -2 -27 -5 -9 0 -10 17 -6 13 4 31 7 40 7 14 0 16 17 15 138 -1 75
-5 148 -8 162 -8 27 -61 80 -81 80 -6 1 -37 2 -69 3 -31 1 -72 -2 -92 -6z
m165 -226 c5 -39 3 -47 -26 -75 -22 -22 -40 -31 -60 -31 -31 2 -65 36 -65 67
0 20 56 81 69 74 3 -2 15 0 26 5 37 15 50 6 56 -40z"/>
<path d="M14955 1058 c-11 -33 -12 -38 -15 -40 -1 -2 -4 -12 -6 -23 -3 -11 -6
-24 -7 -30 -1 -5 -6 -16 -11 -23 -4 -7 -5 -16 -2 -19 3 -3 1 -12 -5 -20 -6 -7
-8 -13 -4 -13 4 0 2 -7 -5 -15 -7 -9 -10 -18 -7 -22 4 -3 2 -12 -3 -19 -6 -6
-9 -18 -8 -25 2 -8 -4 -14 -12 -14 -8 0 -16 6 -16 13 -1 6 -2 13 -4 15 -1 1
-3 10 -5 20 -2 10 -7 26 -11 35 -4 9 -8 20 -9 25 -2 4 -3 8 -5 10 -1 1 -3 10
-5 20 -2 10 -7 26 -11 35 -4 9 -8 20 -9 25 -2 4 -3 8 -5 10 -1 1 -3 10 -5 20
-6 32 -27 47 -66 47 -46 0 -48 -8 -17 -77 11 -26 22 -53 23 -59 2 -6 13 -33
26 -60 12 -27 23 -51 23 -54 1 -3 12 -33 25 -68 l23 -62 -23 -35 c-13 -18 -40
-43 -60 -54 -30 -17 -35 -25 -32 -46 12 -59 52 -56 119 11 38 37 99 143 108
186 3 15 13 42 31 83 15 34 45 123 50 145 2 8 4 16 5 18 2 1 3 6 4 11 0 5 4
13 9 17 4 4 7 18 7 31 0 20 -5 23 -39 23 -31 0 -40 -4 -46 -22z"/>
<path d="M12558 1059 c-60 -16 -118 -69 -122 -111 -1 -3 -4 -10 -8 -14 -13
-12 -9 -129 4 -142 7 -7 9 -12 5 -12 -15 0 24 -59 50 -77 100 -69 226 -48 290
47 13 18 20 36 18 41 -3 4 -1 10 5 14 11 7 14 108 3 119 -4 3 -8 16 -10 27 -2
11 -10 27 -18 35 -8 9 -15 19 -15 23 0 4 -17 17 -39 29 -41 23 -119 33 -163
21z m109 -72 c30 -19 49 -73 47 -135 -2 -56 -6 -67 -33 -93 -17 -16 -39 -30
-48 -30 -10 -1 -25 -2 -33 -3 -20 -2 -85 65 -88 90 -1 10 -3 28 -5 39 -6 31
21 97 51 126 22 21 33 24 63 19 19 -4 40 -10 46 -13z"/>
<path d="M13451 1044 c-17 -14 -30 -31 -28 -37 1 -7 -5 -12 -13 -12 -10 0 -16
12 -18 33 -3 31 -6 33 -35 30 -31 -3 -32 -5 -32 -45 1 -24 2 -108 3 -188 l2
-145 46 0 45 0 -2 121 c-2 115 -1 123 22 151 14 18 38 33 59 37 32 6 35 10 38
44 3 35 2 37 -27 37 -17 0 -42 -11 -60 -26z"/>
<path d="M13706 1053 c2 -7 7 -21 11 -30 9 -25 9 -24 17 -58 4 -16 10 -37 13
-45 4 -8 7 -18 7 -22 1 -3 4 -10 9 -14 4 -4 7 -19 7 -34 0 -15 3 -30 7 -34 4
-3 8 -16 10 -28 2 -12 8 -27 13 -33 5 -7 7 -15 3 -18 -3 -4 0 -13 7 -22 7 -8
9 -15 4 -15 -25 -1 26 -20 52 -20 31 0 51 21 59 65 2 11 4 22 6 25 1 3 3 10 4
15 2 6 4 13 5 18 1 4 4 12 5 17 1 6 3 11 5 13 2 3 10 36 15 62 2 11 4 22 5 25
1 3 3 12 4 20 2 23 31 18 32 -5 1 -11 2 -24 4 -30 1 -5 2 -13 1 -17 0 -4 4
-20 11 -35 6 -15 12 -32 13 -38 1 -5 3 -12 4 -15 1 -3 4 -16 7 -29 2 -14 9
-30 14 -36 5 -7 7 -15 3 -18 -3 -4 0 -13 7 -22 16 -19 74 -19 90 0 7 8 9 15 5
15 -4 0 -3 6 3 13 6 7 13 26 16 42 2 17 5 31 6 33 2 1 3 5 5 10 1 4 7 20 14
36 6 16 9 31 6 34 -2 3 0 11 6 19 6 7 9 13 5 13 -4 0 0 14 9 30 9 17 13 30 9
30 -4 0 -1 7 6 15 7 9 10 18 7 21 -3 3 1 17 9 32 14 27 13 27 -22 30 -32 3
-71 -14 -60 -26 3 -2 1 -12 -3 -21 -9 -16 -22 -72 -23 -101 0 -8 -5 -21 -10
-27 -6 -7 -8 -19 -5 -28 4 -8 2 -17 -3 -20 -6 -4 -10 -22 -10 -41 0 -54 -25
-37 -36 25 -2 8 -6 26 -10 40 -4 14 -8 28 -9 31 -1 3 -5 21 -9 40 -5 19 -11
40 -14 45 -6 10 -12 31 -14 50 -1 6 -6 15 -12 20 -12 11 -67 14 -60 4 2 -4 -3
-10 -12 -13 -9 -3 -14 -12 -11 -20 3 -8 3 -17 -1 -20 -3 -4 -7 -12 -9 -19 -1
-7 -4 -19 -5 -27 -2 -8 -7 -21 -12 -28 -4 -7 -5 -16 -2 -19 3 -3 1 -12 -5 -20
-6 -7 -8 -13 -4 -13 4 0 2 -6 -4 -14 -6 -8 -11 -18 -10 -22 1 -5 0 -13 -1 -19
-2 -5 -3 -19 -4 -29 -1 -26 -26 -33 -26 -7 0 11 -4 22 -9 25 -5 3 -9 16 -9 28
-1 22 -9 63 -12 63 -1 0 -3 9 -5 20 -6 37 -16 80 -22 100 -4 11 -6 25 -5 30 1
6 -20 10 -47 10 -34 0 -47 -4 -45 -12z"/>
<path d="M11049 1055 c-4 -3 -19 -8 -35 -11 -42 -7 -72 -30 -97 -72 -12 -20
-23 -40 -23 -44 -1 -5 -3 -9 -4 -10 -8 -8 -6 -125 2 -135 6 -7 8 -13 4 -13 -4
0 0 -13 9 -29 16 -33 62 -69 97 -78 40 -10 98 -15 111 -10 6 2 15 5 20 6 36 5
121 76 111 93 -3 4 0 8 6 8 7 0 10 7 7 15 -4 8 -2 17 3 20 10 6 6 130 -5 158
-4 9 -11 17 -15 17 -5 0 -11 8 -14 18 -6 19 -52 50 -89 59 -45 11 -82 14 -88
8z m84 -85 c29 -23 49 -94 42 -154 -5 -54 -51 -100 -99 -100 -69 0 -115 79
-101 172 13 88 96 131 158 82z"/>
<path d="M12048 1053 c-23 -6 -23 -24 2 -68 11 -19 17 -35 13 -35 -4 0 -2 -5
5 -12 7 -7 12 -17 12 -24 0 -7 10 -34 22 -61 12 -26 22 -50 22 -53 3 -17 40
-107 47 -114 13 -14 -41 -82 -84 -107 -26 -14 -35 -25 -29 -31 6 -6 8 -16 6
-23 -3 -6 1 -17 9 -24 36 -30 132 54 179 156 26 59 73 179 77 196 3 16 6 28
14 50 4 9 10 25 14 35 3 9 7 20 8 25 2 4 4 9 5 12 1 3 3 8 4 13 1 4 7 17 14
30 7 12 10 27 7 32 -9 15 -91 13 -93 -2 -1 -16 -7 -39 -15 -58 -4 -8 -8 -24
-10 -35 -1 -11 -6 -26 -11 -33 -4 -7 -6 -16 -3 -18 3 -3 -1 -17 -8 -31 -7 -14
-11 -31 -9 -38 3 -7 1 -16 -5 -19 -6 -4 -8 -13 -5 -20 7 -18 -15 -31 -28 -18
-6 6 -10 22 -10 36 0 14 -5 26 -10 26 -5 0 -7 4 -4 8 3 5 -1 21 -9 35 -8 15
-14 30 -15 32 0 3 0 6 -1 8 0 1 -2 10 -4 20 -2 10 -7 26 -11 35 -4 9 -8 20 -9
25 -2 4 -4 9 -5 12 -3 6 -7 22 -9 35 -1 10 -41 12 -73 3z"/>
<path d="M12892 1050 c1 -3 -2 -12 -6 -21 -8 -19 -3 -242 7 -279 8 -32 61 -80
90 -81 71 -3 127 15 145 47 12 22 35 8 29 -17 -4 -16 0 -19 28 -19 28 0 33 4
39 31 3 17 6 103 6 190 l0 159 -39 0 c-22 0 -42 -4 -45 -8 -3 -5 -6 -65 -7
-135 l-1 -126 -32 -28 c-86 -77 -143 -1 -147 194 l-1 98 -33 0 c-18 0 -33 -2
-33 -5z"/>
<path d="M9745 1046 c-5 -3 -23 -7 -38 -10 -32 -8 -94 -67 -109 -105 -13 -36
-16 -119 -5 -161 23 -87 79 -122 197 -122 103 -1 119 5 118 43 -1 29 -3 30
-32 24 -59 -12 -111 -11 -138 3 -34 16 -68 58 -68 83 0 18 10 19 136 19 l137
0 -6 43 c-12 90 -27 122 -78 159 -23 17 -93 31 -114 24z m76 -86 c22 -22 29
-37 27 -57 -3 -28 -4 -28 -86 -31 -95 -3 -108 7 -78 63 33 61 91 71 137 25z"/>
<path d="M10551 1034 c-70 -29 -104 -85 -107 -173 -2 -97 28 -156 102 -194 30
-15 128 -22 148 -10 6 4 17 8 24 9 35 6 90 61 96 96 1 7 4 18 8 23 10 18 1
129 -14 165 -15 35 -68 89 -91 91 -60 7 -141 4 -166 -7z m139 -63 c36 -36 48
-67 46 -121 -2 -68 -24 -109 -69 -134 -35 -18 -36 -18 -66 3 -51 37 -68 70
-67 131 1 55 15 91 45 121 21 21 91 20 111 0z"/>
<path d="M8437 1028 c-6 -4 -15 -5 -19 -2 -19 12 -114 -66 -119 -98 -1 -4 -2
-12 -3 -17 0 -5 -4 -13 -8 -17 -12 -11 -10 -112 2 -119 6 -4 8 -10 6 -14 -9
-15 34 -71 75 -98 84 -55 223 -26 272 56 10 17 15 31 11 31 -3 0 -2 6 4 13 5
6 10 39 10 72 0 33 -5 66 -10 73 -6 6 -8 12 -4 12 4 0 0 13 -9 29 -18 36 -68
73 -104 78 -54 8 -93 8 -104 1z m140 -144 c1 -11 2 -28 3 -39 3 -44 -9 -80
-38 -115 -33 -40 -65 -46 -109 -22 -44 24 -70 109 -53 172 15 54 40 81 86 90
36 7 41 5 74 -30 20 -21 36 -46 37 -56z"/>
<path d="M9311 1009 c-17 -17 -31 -35 -31 -40 0 -5 -4 -9 -9 -9 -6 0 -11 15
-13 33 -3 29 -7 32 -38 35 l-35 3 6 -188 c3 -103 6 -189 7 -190 1 -2 18 -3 37
-3 40 0 37 -8 35 127 -1 84 12 128 49 164 18 17 23 19 51 19 17 0 20 7 20 40
0 36 -3 40 -24 40 -14 0 -38 -13 -55 -31z"/>
<path d="M7895 1020 c-12 -5 -14 -9 -6 -9 8 -1 12 -4 9 -7 -6 -5 3 -30 39
-111 19 -44 17 -40 27 -75 5 -16 12 -28 17 -28 5 0 8 -3 7 -7 -1 -5 3 -18 10
-30 7 -13 10 -23 6 -23 -3 0 -2 -6 4 -12 6 -7 13 -30 17 -51 6 -31 3 -43 -18
-71 -14 -18 -40 -39 -56 -46 -26 -10 -30 -16 -25 -39 3 -14 6 -32 6 -38 3 -34
71 0 126 63 36 42 97 165 105 211 2 10 9 29 17 43 7 14 13 26 12 28 -2 2 -2 5
3 20 4 14 17 47 26 67 6 12 12 30 14 40 2 11 4 21 5 23 2 1 3 5 4 10 1 4 5 13
9 20 5 6 5 12 0 12 -4 0 -1 5 7 10 11 7 0 10 -36 10 -52 0 -61 -7 -65 -57 0
-5 -5 -14 -11 -21 -6 -7 -8 -15 -5 -19 4 -3 2 -12 -4 -20 -6 -7 -8 -13 -4 -13
4 0 2 -7 -5 -15 -7 -9 -10 -18 -7 -22 4 -3 3 -11 -2 -17 -6 -6 -11 -23 -13
-36 -2 -14 -7 -31 -11 -37 -5 -7 -5 -18 -1 -24 4 -7 -1 -10 -12 -7 -11 2 -20
10 -20 18 -1 8 -3 18 -4 23 -1 4 -4 12 -5 17 -1 6 -3 11 -5 13 -1 1 -3 10 -5
20 -2 10 -7 26 -11 35 -4 9 -8 20 -9 25 -2 4 -3 8 -5 10 -1 1 -3 11 -5 22 -2
10 -11 38 -20 62 -15 38 -20 43 -48 42 -18 0 -41 -4 -52 -9z"/>
<path d="M8744 1003 c-7 -26 1 -239 9 -273 19 -71 88 -109 161 -88 22 6 52 23
65 36 l25 25 9 -26 c7 -22 15 -27 40 -27 l32 0 2 173 c1 94 0 180 -3 190 -4
12 -16 17 -40 17 l-34 0 0 -123 0 -123 -34 -40 c-23 -27 -42 -39 -58 -39 -66
3 -85 44 -87 188 -1 62 -6 114 -12 115 -5 2 -7 7 -5 10 2 4 -11 7 -30 7 -27 0
-36 -5 -40 -22z"/>
<path d="M15080 790 c-21 -13 -21 -82 -1 -97 23 -18 56 -16 72 4 43 51 -16
128 -71 93z"/>
<path d="M11750 750 c-25 -25 -25 -41 0 -68 50 -53 124 4 90 69 -14 25 -64 25
-90 -1z"/>
</g>
</svg>
